<svg id="Layer_1" xmlns="http://www.w3.org/2000/svg" width="312" height="39"><style>.st0{fill:#fff}.st1{fill:#90dc4b}</style><path class="st0" d="M205.4 6.4V10h5.3v2.4h-5.3V16h5.5v2.4h-8.1V3.9h8.1v2.4l-5.5.1zM289.3 6.4V10h5.3v2.4h-5.3V16h5.5v2.4h-8.1V3.9h8.1v2.4l-5.5.1zM55.4 14.9h-5.2l-1.7 3.5h-2.8l7-15h.1l7 15H57l-1.6-3.5zm-1-2.3l-1.6-3.9-1.6 3.9h3.2zM70.8 18.5L66 12.3v6.2h-2.6V3.9h5.2c2.5 0 4.5 1.8 4.5 4.3s-1.8 3.8-4 4.1l5 6.2h-3.3zM66 6.3v3.8h2.5c1.1 0 1.9-.8 2-1.9 0-1-.8-1.9-1.9-1.9H66zM174.1 18.5l-4.8-6.2v6.2h-2.6V3.9h5.2c2.5 0 4.5 1.8 4.5 4.3s-1.8 3.8-4 4.1l5 6.2h-3.3zm-4.8-12.2v3.8h2.5c1.1 0 1.9-.8 2-1.9 0-1-.8-1.9-1.9-1.9h-2.6zM88 14.2c0 2.4-2 4.3-4.7 4.3h-4.7V3.9h4.7c2.5 0 4.4 1.8 4.4 4.3.1 1.2-.5 2.3-1.4 3 1.1.6 1.7 1.8 1.7 3zm-6.9-7.9v3.6h2.2c.9.1 1.8-.6 1.8-1.6v-.2c0-1-.7-1.8-1.7-1.8h-.1-2.2zm4.2 7.9c0-1.1-.9-1.9-2-1.9h-2.2V16h2.2c1 .1 1.9-.7 2-1.8zM95.8 6.4V10h5.3v2.4h-5.3V16h5.5v2.4h-8.1V3.9h8.1v2.4l-5.5.1zM109.5 6.3h-3.7V3.9h10.1v2.4h-3.7v12.2h-2.6V6.3h-.1zM136.4 6.4V10h5.4v2.4h-5.4v6.1h-2.6V3.9h8.2v2.4l-5.6.1zM146.4 11.2c.1-4.3 3.7-7.7 8-7.6 4.2.1 7.5 3.5 7.6 7.6-.1 4.3-3.7 7.7-8 7.6-4.1-.1-7.5-3.5-7.6-7.6zm1.9-9.6c0-.8.8-1.5 1.6-1.4.8 0 1.4.7 1.4 1.4 0 .8-.8 1.5-1.6 1.4-.8 0-1.4-.6-1.4-1.4zm11.1 9.6c0-2.9-2.3-5.2-5.2-5.2s-5.2 2.3-5.2 5.2c0 2.9 2.3 5.2 5.2 5.2 2.9-.1 5.2-2.4 5.2-5.2zm-2.2-9.6c0-.8.8-1.5 1.6-1.4.8 0 1.4.7 1.4 1.4 0 .8-.7 1.5-1.5 1.5-.9 0-1.5-.7-1.5-1.5-.1 0-.1 0 0 0zM197 3.6v14.9h-2.6V9l-4.9 4.3-5-4.3v9.5h-2.6V3.6l7.5 6.4 7.4-6.4h.2zM228.1 11.2c0 4.3-3.3 7.3-7.8 7.3h-3.9V3.9h3.9c4.5 0 7.8 3 7.8 7.3zm-2.6 0c0-2.9-2.1-4.9-5.1-4.9h-1.3V16h1.3c3 0 5.1-1.9 5.1-4.8zM240.6 16.1v2.4h-8.1V3.9h2.6v12.2h5.5zM245.2 3.9h2.6v14.6h-2.6V3.9zM265.5 3.9v14.9l-9.3-9.2v8.9h-2.6V3.6l9.3 9.2V3.9h2.6zM312 3.9v14.9l-9.3-9.2v8.9h-2.6V3.6l9.3 9.2V3.9h2.6zM281.3 18.5h-3.6c-4.5 0-7.8-3-7.8-7.3s3.3-7.3 7.8-7.3h2.5v2.4h-2.5c-3.1 0-5.1 2-5.1 4.9s2.1 4.9 5.1 4.9h1v-3.6h-2.2V10h4.8v8.5zM119.9 16h4.6c1.1 0 1.9-.9 1.9-1.9 0-1-.8-1.9-1.9-1.9h-.7c-2.6 0-4.4-1.4-4.4-4.1s2-4.2 4.5-4.2h4.2v2.4H124c-1.1 0-1.9.7-1.9 1.7s.8 1.6 1.9 1.6h.7c2.8 0 4.4 1.5 4.4 4.4 0 2.7-2 4.4-4.5 4.4H120l-.1-2.4zM65.6 27.7l-4.3 9.2-1.9-4.1-1.9 4.1-4.3-9.2h1.5l2.8 6.1 1.2-2.5-1.7-3.6h1.5l.9 2 .9-2h1.4L60 31.3l1.2 2.6 2.8-6.1 1.6-.1zM68.8 28.9v2.6h3.5v1.3h-3.5v2.6h3.5v1.3h-4.9v-9h4.9V29l-3.5-.1zM82.5 32.2c0 2.6-2 4.5-4.8 4.5h-2.3v-9h2.3c2.8 0 4.8 1.9 4.8 4.5zm-1.3 0c0-1.9-1.4-3.3-3.4-3.3h-.9v6.5h.9c2 .1 3.4-1.2 3.4-3.2zM85 27.7h1.4v9H85v-9zM104.5 27.7v9h-1.4v-3.9h-4.4v3.9h-1.4v-9h1.4v3.9h4.4v-3.9h1.4zM118.5 30.3c0 1.5-1.2 2.6-2.6 2.6h-1.6v3.8h-1.4v-9h2.8c1.5 0 2.7 1.1 2.8 2.6zm-1.3 0c0-.7-.6-1.3-1.3-1.3h-1.5v2.6h1.5c.6.1 1.2-.5 1.3-1.3 0 .1 0 0 0 0zM120.8 33.9v-6.2h1.4v6.2c0 1 .8 1.7 1.7 1.7h.1c1 0 1.8-.7 1.8-1.7v-6.3h1.4v6.2c0 1.7-1.2 3-3.1 3-2 .1-3.3-1.2-3.3-2.9zM135.8 34.1c0 1.6-1.2 2.6-2.8 2.6h-2.9v-9h2.9c1.4-.1 2.6 1 2.7 2.4v.1c0 .8-.3 1.5-.9 1.9.6.5 1 1.2 1 2zm-4.3-5.1v2.5h1.5c.7 0 1.3-.6 1.3-1.3 0-.7-.6-1.3-1.3-1.3l-1.5.1zm3 5.1c0-.8-.7-1.4-1.5-1.3h-1.5v2.6h1.5c.8.1 1.4-.5 1.5-1.3zM143.4 35.4v1.3h-4.8v-9h1.4v7.7h3.4zM145.8 27.7h1.4v9h-1.4v-9zM149.7 32.2c0-2.6 2-4.5 4.8-4.5h1.4V29h-1.4c-2.1 0-3.4 1.3-3.4 3.2 0 2 1.4 3.2 3.4 3.2h1.4v1.3h-1.4c-2.8 0-4.8-1.9-4.8-4.5zM165.2 28.9v2.6h3.5v1.3h-3.5v2.6h3.5v1.3h-4.9v-9h4.9V29l-3.5-.1zM180.9 27.5v9.2h-1.4v-6.4l-3.2 2.6-3.1-2.6v6.4h-1.4v-9.2l4.5 3.8 4.6-3.8zM189.8 30.3c0 1.5-1.2 2.6-2.6 2.6h-1.6v3.9h-1.4v-9h2.8c1.6-.1 2.8 1 2.8 2.5zm-1.3 0c0-.7-.6-1.3-1.3-1.3h-1.5v2.6h1.5c.7 0 1.3-.5 1.4-1.2l-.1-.1zM196.9 35.4v1.3h-4.8v-9h1.4v7.7h3.4zM198.3 32.2c-.1-2.7 2.1-4.9 4.7-4.9 2.7-.1 4.9 2.1 4.9 4.7s-2.1 4.9-4.7 4.9h-.1c-2.6.1-4.8-2-4.8-4.7zm8.3 0c0-1.9-1.5-3.5-3.4-3.5s-3.5 1.5-3.5 3.4 1.5 3.5 3.4 3.5c1.9.1 3.4-1.4 3.5-3.3v-.1zM213.1 32.4v4.4h-1.4v-4.4l-2.8-4.6h1.5l1.9 3.3 1.9-3.3h1.5l-2.6 4.6zM226.9 27.5v9.2h-1.4v-6.4l-3.2 2.6-3.2-2.6v6.4h-1.4v-9.2l4.5 3.8 4.7-3.8zM231.7 28.9v2.6h3.5v1.3h-3.5v2.6h3.6v1.3h-4.9v-9h4.9V29l-3.6-.1zM245.5 27.7v9.2l-5.7-6.2v6h-1.4v-9.2l5.7 6.1v-5.9h1.4zM250.1 29h-2.4v-1.3h6V29h-2.3v7.7H250l.1-7.7zM46.4 35.4h2.7c.7 0 1.4-.5 1.4-1.3 0-.7-.5-1.4-1.3-1.4h-.5c-1.9 0-2.7-1-2.7-2.5s1-2.5 2.7-2.5h2.5V29h-2.6c-.7-.1-1.3.4-1.3 1.1-.1.7.4 1.3 1.1 1.3h.5c1.9 0 2.8 1.1 2.8 2.6s-1 2.6-2.8 2.6h-2.7l.2-1.2zM89.4 35.4h2.7c.7 0 1.4-.5 1.4-1.3 0-.7-.5-1.4-1.3-1.4h-.5c-1.9 0-2.7-1-2.7-2.5s1-2.5 2.7-2.5h2.6V29h-2.6c-.7-.1-1.3.4-1.3 1.1-.1.7.4 1.3 1.1 1.3h.5c1.9 0 2.8 1.1 2.8 2.6s-1 2.6-2.7 2.6h-2.7v-1.2zM260.9 35.4h2.7c.7 0 1.4-.5 1.4-1.3 0-.7-.5-1.4-1.3-1.4h-.5c-1.9 0-2.7-1-2.7-2.5s1-2.5 2.7-2.5h2.6V29h-2.6c-.7-.1-1.3.4-1.3 1.1-.1.7.4 1.3 1.1 1.3h.5c1.9 0 2.8 1.1 2.8 2.6s-1 2.6-2.8 2.6h-2.7c.1.1.1-1.2.1-1.2zM270.4 28.9v2.6h3.5v1.3h-3.5v2.6h3.5v1.3H269v-9h4.9V29l-3.5-.1zM281.5 36.7l-3.1-3.9v4H277v-9h3c1.4-.1 2.7 1.1 2.7 2.5 0 1.5-1.2 2.5-2.7 2.5l3.1 3.9h-1.6zm-3.1-7.7v2.6h1.6c.7 0 1.3-.6 1.3-1.3 0-.7-.6-1.3-1.3-1.3h-1.6zM292.5 27.7l-4.3 9.1-4.3-9.1h1.5l2.8 6.1 2.8-6.1h1.5zM294.4 27.7h1.4v9h-1.4v-9zM298.3 32.2c0-2.6 2-4.5 4.8-4.5h1.4V29h-1.4c-2.1 0-3.4 1.3-3.4 3.2 0 2 1.4 3.2 3.4 3.2h1.4v1.3h-1.4c-2.8 0-4.8-1.9-4.8-4.5zM308.4 28.9v2.6h3.5v1.3h-3.5v2.6h3.5v1.3H307v-9h4.9V29l-3.5-.1z"/><path class="st1" d="M12.9 12C5.8 12 0 17.8 0 24.9s5.8 12.9 12.9 12.9S25.7 32 25.7 24.9 20 12 12.9 12zm0 19.7c-3.8 0-6.9-3.1-6.9-6.9s3.1-6.9 6.9-6.9 6.9 3.1 6.9 6.9c-.1 3.9-3.1 6.9-6.9 6.9z"/><path class="st1" d="M12.9 0v6c10.4 0 18.8 8.4 18.8 18.8 0 3.5-.9 6.8-2.7 9.8l5 3.3c7.2-11.7 3.6-27-8-34.2C22 1.3 17.5 0 12.9 0z"/><path fill="#00005a" d="M399.6-6.4h1.7z"/></svg>