<?xml version="1.0" encoding="UTF-8" standalone="no"?>
<!DOCTYPE svg PUBLIC "-//W3C//DTD SVG 1.1//EN"
 "http://www.w3.org/Graphics/SVG/1.1/DTD/svg11.dtd">
<!-- Generated by graphviz version 2.40.1 (20161225.0304)
 -->
<!-- Title: TaxonomyTypes Pages: 1 -->
<svg width="1673pt" height="823pt"
 viewBox="0.00 0.00 1673.00 822.50" xmlns="http://www.w3.org/2000/svg" xmlns:xlink="http://www.w3.org/1999/xlink">
<g id="graph0" class="graph" transform="scale(1 1) rotate(0) translate(4 818.5)">
<title>TaxonomyTypes</title>
<polygon fill="#ffffff" stroke="transparent" points="-4,4 -4,-818.5 1669,-818.5 1669,4 -4,4"/>
<text text-anchor="middle" x="832.5" y="-786.5" font-family="Arial" font-size="30.00" fill="#00005a">Taxonomy Types and Relations</text>
<!-- driving&#45;licence -->
<g id="node1" class="node">
<title>driving&#45;licence</title>
<path fill="#92eb42" stroke="#92eb42" d="M1389.8333,-23C1389.8333,-23 1297.1667,-23 1297.1667,-23 1293.3333,-23 1289.5,-19.1667 1289.5,-15.3333 1289.5,-15.3333 1289.5,-7.6667 1289.5,-7.6667 1289.5,-3.8333 1293.3333,0 1297.1667,0 1297.1667,0 1389.8333,0 1389.8333,0 1393.6667,0 1397.5,-3.8333 1397.5,-7.6667 1397.5,-7.6667 1397.5,-15.3333 1397.5,-15.3333 1397.5,-19.1667 1393.6667,-23 1389.8333,-23"/>
<text text-anchor="middle" x="1343.5" y="-7.8" font-family="Arial" font-size="14.00" fill="#00005a">driving&#45;licence</text>
</g>
<!-- driving&#45;licence&#45;&gt;driving&#45;licence -->
<g id="edge1" class="edge">
<title>driving&#45;licence&#45;&gt;driving&#45;licence</title>
<path fill="none" stroke="#00005a" d="M1372.8912,-23.0064C1383.883,-31.9145 1374.0859,-41 1343.5,-41 1324.3838,-41 1313.3882,-37.451 1310.5133,-32.6144"/>
<polygon fill="#00005a" stroke="#00005a" points="1313.8819,-33.5988 1314.1088,-23.0064 1307.3259,-31.1454 1313.8819,-33.5988"/>
<text text-anchor="middle" x="1343.5" y="-44.8" font-family="Arial" font-size="14.00" fill="#00005a">broader</text>
<polyline fill="none" stroke="#00005a" points="1369,-41 1318,-41 1343.0535,-40.9994 "/>
</g>
<!-- skill -->
<g id="node2" class="node">
<title>skill</title>
<path fill="#92eb42" stroke="#92eb42" d="M451.8333,-333C451.8333,-333 428.1667,-333 428.1667,-333 424.3333,-333 420.5,-329.1667 420.5,-325.3333 420.5,-325.3333 420.5,-317.6667 420.5,-317.6667 420.5,-313.8333 424.3333,-310 428.1667,-310 428.1667,-310 451.8333,-310 451.8333,-310 455.6667,-310 459.5,-313.8333 459.5,-317.6667 459.5,-317.6667 459.5,-325.3333 459.5,-325.3333 459.5,-329.1667 455.6667,-333 451.8333,-333"/>
<text text-anchor="middle" x="440" y="-317.8" font-family="Arial" font-size="14.00" fill="#00005a">skill</text>
</g>
<!-- skill&#45;headline -->
<g id="node3" class="node">
<title>skill&#45;headline</title>
<path fill="#92eb42" stroke="#92eb42" d="M270.3333,-333C270.3333,-333 186.6667,-333 186.6667,-333 182.8333,-333 179,-329.1667 179,-325.3333 179,-325.3333 179,-317.6667 179,-317.6667 179,-313.8333 182.8333,-310 186.6667,-310 186.6667,-310 270.3333,-310 270.3333,-310 274.1667,-310 278,-313.8333 278,-317.6667 278,-317.6667 278,-325.3333 278,-325.3333 278,-329.1667 274.1667,-333 270.3333,-333"/>
<text text-anchor="middle" x="228.5" y="-317.8" font-family="Arial" font-size="14.00" fill="#00005a">skill&#45;headline</text>
</g>
<!-- skill&#45;&gt;skill&#45;headline -->
<g id="edge2" class="edge">
<title>skill&#45;&gt;skill&#45;headline</title>
<path fill="none" stroke="#00005a" d="M420.4817,-321.5C390.6916,-321.5 332.6525,-321.5 288.1532,-321.5"/>
<polygon fill="#00005a" stroke="#00005a" points="288.0206,-318.0001 278.0206,-321.5 288.0205,-325.0001 288.0206,-318.0001"/>
<text text-anchor="middle" x="321.5" y="-325.3" font-family="Arial" font-size="14.00" fill="#00005a">broader</text>
<polyline fill="none" stroke="#00005a" points="347,-321.5 296,-321.5 321.7041,-321.5 "/>
</g>
<!-- isco&#45;level&#45;4 -->
<g id="node5" class="node">
<title>isco&#45;level&#45;4</title>
<path fill="#92eb42" stroke="#92eb42" d="M757.3333,-647C757.3333,-647 684.6667,-647 684.6667,-647 680.8333,-647 677,-643.1667 677,-639.3333 677,-639.3333 677,-631.6667 677,-631.6667 677,-627.8333 680.8333,-624 684.6667,-624 684.6667,-624 757.3333,-624 757.3333,-624 761.1667,-624 765,-627.8333 765,-631.6667 765,-631.6667 765,-639.3333 765,-639.3333 765,-643.1667 761.1667,-647 757.3333,-647"/>
<text text-anchor="middle" x="721" y="-631.8" font-family="Arial" font-size="14.00" fill="#00005a">isco&#45;level&#45;4</text>
</g>
<!-- skill&#45;&gt;isco&#45;level&#45;4 -->
<g id="edge14" class="edge">
<title>skill&#45;&gt;isco&#45;level&#45;4</title>
<path fill="none" stroke="#96b0ff" d="M457.0256,-333.0338C474.5435,-345.8772 501.1668,-368.3112 515,-394.5 536.7049,-435.5914 508.5003,-458.0111 533,-497.5 572.2753,-560.8045 652.2135,-604.3998 694.0719,-623.9147"/>
<text text-anchor="middle" x="579.5" y="-588.3" font-family="Arial" font-size="14.00" fill="#96b0ff">related</text>
<polyline fill="none" stroke="#96b0ff" points="602,-584.5 557,-584.5 598.8559,-567.0368 "/>
</g>
<!-- esco&#45;occupation -->
<g id="node4" class="node">
<title>esco&#45;occupation</title>
<path fill="#92eb42" stroke="#92eb42" d="M1396.8333,-632C1396.8333,-632 1290.1667,-632 1290.1667,-632 1286.3333,-632 1282.5,-628.1667 1282.5,-624.3333 1282.5,-624.3333 1282.5,-616.6667 1282.5,-616.6667 1282.5,-612.8333 1286.3333,-609 1290.1667,-609 1290.1667,-609 1396.8333,-609 1396.8333,-609 1400.6667,-609 1404.5,-612.8333 1404.5,-616.6667 1404.5,-616.6667 1404.5,-624.3333 1404.5,-624.3333 1404.5,-628.1667 1400.6667,-632 1396.8333,-632"/>
<text text-anchor="middle" x="1343.5" y="-616.8" font-family="Arial" font-size="14.00" fill="#00005a">esco&#45;occupation</text>
</g>
<!-- esco&#45;occupation&#45;&gt;isco&#45;level&#45;4 -->
<g id="edge3" class="edge">
<title>esco&#45;occupation&#45;&gt;isco&#45;level&#45;4</title>
<path fill="none" stroke="#00005a" d="M1282.3804,-631.4682C1253.037,-636.1953 1217.3094,-641.168 1185,-643.5 1021.4255,-655.3064 979.8553,-650.387 816,-643.5 802.9514,-642.9516 788.9213,-641.9812 775.7544,-640.9011"/>
<polygon fill="#00005a" stroke="#00005a" points="775.6769,-637.3818 765.4151,-640.0173 775.0806,-644.3563 775.6769,-637.3818"/>
<text text-anchor="middle" x="997" y="-670.3" font-family="Arial" font-size="14.00" fill="#00005a">broad_match</text>
<text text-anchor="middle" x="997" y="-655.3" font-family="Arial" font-size="14.00" fill="#00005a">broader</text>
<polyline fill="none" stroke="#00005a" points="1040,-651.5 954,-651.5 997.5979,-650.4713 "/>
</g>
<!-- occupation&#45;name -->
<g id="node10" class="node">
<title>occupation&#45;name</title>
<path fill="#92eb42" stroke="#92eb42" d="M1052.8333,-578C1052.8333,-578 941.1667,-578 941.1667,-578 937.3333,-578 933.5,-574.1667 933.5,-570.3333 933.5,-570.3333 933.5,-562.6667 933.5,-562.6667 933.5,-558.8333 937.3333,-555 941.1667,-555 941.1667,-555 1052.8333,-555 1052.8333,-555 1056.6667,-555 1060.5,-558.8333 1060.5,-562.6667 1060.5,-562.6667 1060.5,-570.3333 1060.5,-570.3333 1060.5,-574.1667 1056.6667,-578 1052.8333,-578"/>
<text text-anchor="middle" x="997" y="-562.8" font-family="Arial" font-size="14.00" fill="#00005a">occupation&#45;name</text>
</g>
<!-- esco&#45;occupation&#45;&gt;occupation&#45;name -->
<g id="edge24" class="edge">
<title>esco&#45;occupation&#45;&gt;occupation&#45;name</title>
<path fill="none" stroke="#00005a" d="M1282.3531,-614.1396C1257.2018,-610.2635 1228.1346,-604.1266 1203,-594.5 1194.2446,-591.1467 1193.9015,-586.4436 1185,-583.5 1148.6095,-571.4662 1106.2306,-566.8797 1070.9303,-565.4473"/>
<polygon fill="#00005a" stroke="#00005a" points="1070.8055,-561.9415 1060.696,-565.1113 1070.5757,-568.9377 1070.8055,-561.9415"/>
<text text-anchor="middle" x="1138.5" y="-632.3" font-family="Arial" font-size="14.00" fill="#00005a">broad_match</text>
<text text-anchor="middle" x="1138.5" y="-617.3" font-family="Arial" font-size="14.00" fill="#00005a">close_match</text>
<text text-anchor="middle" x="1138.5" y="-602.3" font-family="Arial" font-size="14.00" fill="#00005a">exact_match</text>
<text text-anchor="middle" x="1138.5" y="-587.3" font-family="Arial" font-size="14.00" fill="#00005a">narrow_match</text>
<polyline fill="none" stroke="#00005a" points="1185,-583.5 1092,-583.5 1146.3368,-573.643 "/>
</g>
<!-- sun&#45;education&#45;field&#45;2 -->
<g id="node6" class="node">
<title>sun&#45;education&#45;field&#45;2</title>
<path fill="#92eb42" stroke="#92eb42" d="M788.3333,-250C788.3333,-250 653.6667,-250 653.6667,-250 649.8333,-250 646,-246.1667 646,-242.3333 646,-242.3333 646,-234.6667 646,-234.6667 646,-230.8333 649.8333,-227 653.6667,-227 653.6667,-227 788.3333,-227 788.3333,-227 792.1667,-227 796,-230.8333 796,-234.6667 796,-234.6667 796,-242.3333 796,-242.3333 796,-246.1667 792.1667,-250 788.3333,-250"/>
<text text-anchor="middle" x="721" y="-234.8" font-family="Arial" font-size="14.00" fill="#00005a">sun&#45;education&#45;field&#45;2</text>
</g>
<!-- sun&#45;education&#45;field&#45;1 -->
<g id="node7" class="node">
<title>sun&#45;education&#45;field&#45;1</title>
<path fill="#92eb42" stroke="#92eb42" d="M507.3333,-250C507.3333,-250 372.6667,-250 372.6667,-250 368.8333,-250 365,-246.1667 365,-242.3333 365,-242.3333 365,-234.6667 365,-234.6667 365,-230.8333 368.8333,-227 372.6667,-227 372.6667,-227 507.3333,-227 507.3333,-227 511.1667,-227 515,-230.8333 515,-234.6667 515,-234.6667 515,-242.3333 515,-242.3333 515,-246.1667 511.1667,-250 507.3333,-250"/>
<text text-anchor="middle" x="440" y="-234.8" font-family="Arial" font-size="14.00" fill="#00005a">sun&#45;education&#45;field&#45;1</text>
</g>
<!-- sun&#45;education&#45;field&#45;2&#45;&gt;sun&#45;education&#45;field&#45;1 -->
<g id="edge4" class="edge">
<title>sun&#45;education&#45;field&#45;2&#45;&gt;sun&#45;education&#45;field&#45;1</title>
<path fill="none" stroke="#00005a" d="M645.6972,-238.5C608.538,-238.5 563.5609,-238.5 525.1522,-238.5"/>
<polygon fill="#00005a" stroke="#00005a" points="525.0231,-235.0001 515.0231,-238.5 525.023,-242.0001 525.0231,-235.0001"/>
<text text-anchor="middle" x="579.5" y="-242.3" font-family="Arial" font-size="14.00" fill="#00005a">broader</text>
<polyline fill="none" stroke="#00005a" points="605,-238.5 554,-238.5 579.5862,-238.5 "/>
</g>
<!-- ssyk&#45;level&#45;4 -->
<g id="node8" class="node">
<title>ssyk&#45;level&#45;4</title>
<path fill="#92eb42" stroke="#92eb42" d="M759.3333,-429C759.3333,-429 682.6667,-429 682.6667,-429 678.8333,-429 675,-425.1667 675,-421.3333 675,-421.3333 675,-413.6667 675,-413.6667 675,-409.8333 678.8333,-406 682.6667,-406 682.6667,-406 759.3333,-406 759.3333,-406 763.1667,-406 767,-409.8333 767,-413.6667 767,-413.6667 767,-421.3333 767,-421.3333 767,-425.1667 763.1667,-429 759.3333,-429"/>
<text text-anchor="middle" x="721" y="-413.8" font-family="Arial" font-size="14.00" fill="#00005a">ssyk&#45;level&#45;4</text>
</g>
<!-- ssyk&#45;level&#45;4&#45;&gt;skill -->
<g id="edge34" class="edge">
<title>ssyk&#45;level&#45;4&#45;&gt;skill</title>
<path fill="none" stroke="#00005a" d="M690.2964,-405.8688C671.7408,-398.9194 647.58,-390.0112 626,-382.5 570.8462,-363.303 505.9271,-342.3922 469.205,-330.7185"/>
<polygon fill="#00005a" stroke="#00005a" points="470.217,-327.3677 459.6267,-327.6799 468.1002,-334.04 470.217,-327.3677"/>
<text text-anchor="middle" x="579.5" y="-401.3" font-family="Arial" font-size="14.00" fill="#00005a">broader</text>
<text text-anchor="middle" x="579.5" y="-386.3" font-family="Arial" font-size="14.00" fill="#00005a">related</text>
<polyline fill="none" stroke="#00005a" points="605,-382.5 554,-382.5 589.1384,-369.8844 "/>
</g>
<!-- ssyk&#45;level&#45;4&#45;&gt;isco&#45;level&#45;4 -->
<g id="edge10" class="edge">
<title>ssyk&#45;level&#45;4&#45;&gt;isco&#45;level&#45;4</title>
<path fill="none" stroke="#96b0ff" d="M755.1264,-429.0392C804.0194,-447.6324 885.3168,-487.4174 858.5,-539 836.2363,-581.8246 785.2918,-609.6097 752.0549,-623.9028"/>
<text text-anchor="middle" x="859" y="-527.8" font-family="Arial" font-size="14.00" fill="#96b0ff">related</text>
<polyline fill="none" stroke="#96b0ff" points="881.5,-524 836.5,-524 858.4837,-539.0314 "/>
</g>
<!-- swedish&#45;retail&#45;and&#45;wholesale&#45;council&#45;skill -->
<g id="node9" class="node">
<title>swedish&#45;retail&#45;and&#45;wholesale&#45;council&#45;skill</title>
<path fill="#92eb42" stroke="#92eb42" d="M1476.3333,-586C1476.3333,-586 1210.6667,-586 1210.6667,-586 1206.8333,-586 1203,-582.1667 1203,-578.3333 1203,-578.3333 1203,-570.6667 1203,-570.6667 1203,-566.8333 1206.8333,-563 1210.6667,-563 1210.6667,-563 1476.3333,-563 1476.3333,-563 1480.1667,-563 1484,-566.8333 1484,-570.6667 1484,-570.6667 1484,-578.3333 1484,-578.3333 1484,-582.1667 1480.1667,-586 1476.3333,-586"/>
<text text-anchor="middle" x="1343.5" y="-570.8" font-family="Arial" font-size="14.00" fill="#00005a">swedish&#45;retail&#45;and&#45;wholesale&#45;council&#45;skill</text>
</g>
<!-- ssyk&#45;level&#45;4&#45;&gt;swedish&#45;retail&#45;and&#45;wholesale&#45;council&#45;skill -->
<g id="edge5" class="edge">
<title>ssyk&#45;level&#45;4&#45;&gt;swedish&#45;retail&#45;and&#45;wholesale&#45;council&#45;skill</title>
<path fill="none" stroke="#96b0ff" d="M736.735,-429.2215C754.2756,-443.1197 782.2419,-467.9049 798,-495.5 813.5031,-522.6484 791.2261,-544.4307 816,-563.5 846.2885,-586.8141 869.1328,-583.0111 902,-563.5 916.366,-554.9719 907.1438,-541.1691 920,-530.5 975.3765,-484.5444 1014.5873,-521.103 1074,-480.5 1084.4304,-473.3718 1080.5835,-463.91 1092,-458.5 1129.3517,-440.7998 1152.8878,-432.4759 1185,-458.5 1215.0007,-482.8129 1175.8107,-516.0792 1203,-543.5 1211.2663,-551.8367 1221.2331,-558.1571 1231.9973,-562.9207"/>
<text text-anchor="middle" x="997" y="-534.3" font-family="Arial" font-size="14.00" fill="#96b0ff">related</text>
<polyline fill="none" stroke="#96b0ff" points="1019.5,-530.5 974.5,-530.5 994.3547,-503.5721 "/>
</g>
<!-- ssyk&#45;level&#45;3 -->
<g id="node13" class="node">
<title>ssyk&#45;level&#45;3</title>
<path fill="#92eb42" stroke="#92eb42" d="M478.3333,-427C478.3333,-427 401.6667,-427 401.6667,-427 397.8333,-427 394,-423.1667 394,-419.3333 394,-419.3333 394,-411.6667 394,-411.6667 394,-407.8333 397.8333,-404 401.6667,-404 401.6667,-404 478.3333,-404 478.3333,-404 482.1667,-404 486,-407.8333 486,-411.6667 486,-411.6667 486,-419.3333 486,-419.3333 486,-423.1667 482.1667,-427 478.3333,-427"/>
<text text-anchor="middle" x="440" y="-411.8" font-family="Arial" font-size="14.00" fill="#00005a">ssyk&#45;level&#45;3</text>
</g>
<!-- ssyk&#45;level&#45;4&#45;&gt;ssyk&#45;level&#45;3 -->
<g id="edge27" class="edge">
<title>ssyk&#45;level&#45;4&#45;&gt;ssyk&#45;level&#45;3</title>
<path fill="none" stroke="#00005a" d="M674.6137,-416.9639C659.1515,-416.798 641.8337,-416.6259 626,-416.5 582.4638,-416.1538 533.1945,-415.8949 496.3064,-415.7274"/>
<polygon fill="#00005a" stroke="#00005a" points="496.2609,-412.2272 486.2454,-415.6825 496.2297,-419.2272 496.2609,-412.2272"/>
<text text-anchor="middle" x="579.5" y="-420.3" font-family="Arial" font-size="14.00" fill="#00005a">broader</text>
<polyline fill="none" stroke="#00005a" points="605,-416.5 554,-416.5 579.2754,-416.1708 "/>
</g>
<!-- occupation&#45;field -->
<g id="node17" class="node">
<title>occupation&#45;field</title>
<path fill="#92eb42" stroke="#92eb42" d="M490.8333,-494C490.8333,-494 389.1667,-494 389.1667,-494 385.3333,-494 381.5,-490.1667 381.5,-486.3333 381.5,-486.3333 381.5,-478.6667 381.5,-478.6667 381.5,-474.8333 385.3333,-471 389.1667,-471 389.1667,-471 490.8333,-471 490.8333,-471 494.6667,-471 498.5,-474.8333 498.5,-478.6667 498.5,-478.6667 498.5,-486.3333 498.5,-486.3333 498.5,-490.1667 494.6667,-494 490.8333,-494"/>
<text text-anchor="middle" x="440" y="-478.8" font-family="Arial" font-size="14.00" fill="#00005a">occupation&#45;field</text>
</g>
<!-- ssyk&#45;level&#45;4&#45;&gt;occupation&#45;field -->
<g id="edge13" class="edge">
<title>ssyk&#45;level&#45;4&#45;&gt;occupation&#45;field</title>
<path fill="none" stroke="#00005a" d="M674.9132,-428.1606C627.0817,-439.2249 552.0788,-456.5743 499.7298,-468.6835"/>
<polygon fill="#00005a" stroke="#00005a" points="498.8578,-465.2927 489.9039,-470.9564 500.4355,-472.1126 498.8578,-465.2927"/>
<text text-anchor="middle" x="579.5" y="-464.3" font-family="Arial" font-size="14.00" fill="#00005a">broader</text>
<polyline fill="none" stroke="#00005a" points="605,-460.5 554,-460.5 575.4391,-451.1707 "/>
</g>
<!-- forecast&#45;occupation -->
<g id="node19" class="node">
<title>forecast&#45;occupation</title>
<path fill="#92eb42" stroke="#92eb42" d="M1406.8333,-354C1406.8333,-354 1280.1667,-354 1280.1667,-354 1276.3333,-354 1272.5,-350.1667 1272.5,-346.3333 1272.5,-346.3333 1272.5,-338.6667 1272.5,-338.6667 1272.5,-334.8333 1276.3333,-331 1280.1667,-331 1280.1667,-331 1406.8333,-331 1406.8333,-331 1410.6667,-331 1414.5,-334.8333 1414.5,-338.6667 1414.5,-338.6667 1414.5,-346.3333 1414.5,-346.3333 1414.5,-350.1667 1410.6667,-354 1406.8333,-354"/>
<text text-anchor="middle" x="1343.5" y="-338.8" font-family="Arial" font-size="14.00" fill="#00005a">forecast&#45;occupation</text>
</g>
<!-- ssyk&#45;level&#45;4&#45;&gt;forecast&#45;occupation -->
<g id="edge16" class="edge">
<title>ssyk&#45;level&#45;4&#45;&gt;forecast&#45;occupation</title>
<path fill="none" stroke="#96b0ff" d="M738.7137,-429.2035C756.1004,-441.5405 782.238,-462.4916 798,-486.5 811.884,-507.6479 795.477,-525.7079 816,-540.5 847.0075,-562.8489 871.9843,-564.1643 902,-540.5 928.9198,-519.2765 897.8513,-491.6638 920,-465.5 973.6562,-402.117 1012.6355,-416.9472 1092,-392.5 1151.6693,-374.1197 1221.4443,-360.8717 1272.343,-352.6492"/>
<text text-anchor="middle" x="997" y="-469.3" font-family="Arial" font-size="14.00" fill="#96b0ff">related</text>
<polyline fill="none" stroke="#96b0ff" points="1019.5,-465.5 974.5,-465.5 974.1289,-422.2793 "/>
</g>
<!-- occupation&#45;name&#45;&gt;isco&#45;level&#45;4 -->
<g id="edge28" class="edge">
<title>occupation&#45;name&#45;&gt;isco&#45;level&#45;4</title>
<path fill="none" stroke="#00005a" d="M951.586,-578.0101C935.8827,-581.9802 918.1709,-586.4472 902,-590.5 859.3662,-601.1851 811.0571,-613.1905 775.0772,-622.112"/>
<polygon fill="#00005a" stroke="#00005a" points="774.1349,-618.7396 765.2709,-624.5429 775.8193,-625.5339 774.1349,-618.7396"/>
<text text-anchor="middle" x="859" y="-631.3" font-family="Arial" font-size="14.00" fill="#00005a">broad_match</text>
<text text-anchor="middle" x="859" y="-616.3" font-family="Arial" font-size="14.00" fill="#00005a">broader</text>
<polyline fill="none" stroke="#00005a" points="902,-612.5 816,-612.5 853.112,-602.7159 "/>
</g>
<!-- occupation&#45;name&#45;&gt;ssyk&#45;level&#45;4 -->
<g id="edge37" class="edge">
<title>occupation&#45;name&#45;&gt;ssyk&#45;level&#45;4</title>
<path fill="none" stroke="#00005a" d="M964.8985,-554.9971C949.0822,-547.7397 931.0755,-536.8024 920,-521.5 897.6139,-490.5704 930.3269,-463.1001 902,-437.5 868.7711,-407.4697 816.8897,-404.5516 777.1761,-407.9349"/>
<polygon fill="#00005a" stroke="#00005a" points="776.7015,-404.4648 767.1019,-408.9479 777.402,-411.4297 776.7015,-404.4648"/>
<text text-anchor="middle" x="859" y="-441.3" font-family="Arial" font-size="14.00" fill="#00005a">broader</text>
<polyline fill="none" stroke="#00005a" points="884.5,-437.5 833.5,-437.5 869.7382,-417.9413 "/>
</g>
<!-- occupation&#45;name&#45;&gt;swedish&#45;retail&#45;and&#45;wholesale&#45;council&#45;skill -->
<g id="edge15" class="edge">
<title>occupation&#45;name&#45;&gt;swedish&#45;retail&#45;and&#45;wholesale&#45;council&#45;skill</title>
<path fill="none" stroke="#96b0ff" d="M1037.7941,-554.9074C1054.4535,-550.7375 1074.0025,-546.5567 1092,-544.5 1164.5227,-536.2123 1248.741,-551.2868 1298.9935,-562.9105"/>
<text text-anchor="middle" x="1138.5" y="-548.3" font-family="Arial" font-size="14.00" fill="#96b0ff">related</text>
<polyline fill="none" stroke="#96b0ff" points="1161,-544.5 1116,-544.5 1138.584,-542.1203 "/>
</g>
<!-- occupation&#45;name&#45;&gt;occupation&#45;name -->
<g id="edge6" class="edge">
<title>occupation&#45;name&#45;&gt;occupation&#45;name</title>
<path fill="none" stroke="#00005a" d="M1019.5332,-578.0064C1027.9603,-586.9145 1020.4492,-596 997,-596 982.7106,-596 974.3397,-592.6262 971.8872,-587.9747"/>
<polygon fill="#00005a" stroke="#00005a" points="975.3498,-588.5644 974.4668,-578.0064 968.5731,-586.8107 975.3498,-588.5644"/>
<text text-anchor="middle" x="997" y="-599.8" font-family="Arial" font-size="14.00" fill="#00005a">substitutes</text>
<polyline fill="none" stroke="#00005a" points="1032,-596 962,-596 996.6662,-595.9994 "/>
</g>
<!-- occupation&#45;name&#45;&gt;occupation&#45;field -->
<g id="edge11" class="edge">
<title>occupation&#45;name&#45;&gt;occupation&#45;field</title>
<path fill="none" stroke="#00005a" d="M977.3983,-554.8744C958.7144,-544.4211 929.4398,-529.6452 902,-522.5 742.8362,-481.0544 696.6161,-511.2518 533,-494.5 525.2568,-493.7072 517.1618,-492.792 509.1167,-491.8277"/>
<polygon fill="#00005a" stroke="#00005a" points="509.3347,-488.3283 498.9831,-490.5855 508.483,-495.2763 509.3347,-488.3283"/>
<text text-anchor="middle" x="721" y="-521.3" font-family="Arial" font-size="14.00" fill="#00005a">broader</text>
<text text-anchor="middle" x="721" y="-506.3" font-family="Arial" font-size="14.00" fill="#00005a">related</text>
<polyline fill="none" stroke="#00005a" points="746.5,-502.5 695.5,-502.5 720.9941,-499.2315 "/>
</g>
<!-- occupation&#45;collection -->
<g id="node20" class="node">
<title>occupation&#45;collection</title>
<path fill="#92eb42" stroke="#92eb42" d="M1411.3333,-535C1411.3333,-535 1275.6667,-535 1275.6667,-535 1271.8333,-535 1268,-531.1667 1268,-527.3333 1268,-527.3333 1268,-519.6667 1268,-519.6667 1268,-515.8333 1271.8333,-512 1275.6667,-512 1275.6667,-512 1411.3333,-512 1411.3333,-512 1415.1667,-512 1419,-515.8333 1419,-519.6667 1419,-519.6667 1419,-527.3333 1419,-527.3333 1419,-531.1667 1415.1667,-535 1411.3333,-535"/>
<text text-anchor="middle" x="1343.5" y="-519.8" font-family="Arial" font-size="14.00" fill="#00005a">occupation&#45;collection</text>
</g>
<!-- occupation&#45;name&#45;&gt;occupation&#45;collection -->
<g id="edge17" class="edge">
<title>occupation&#45;name&#45;&gt;occupation&#45;collection</title>
<path fill="none" stroke="#96b0ff" d="M1016.1684,-554.8714C1034.7802,-544.3097 1064.2163,-529.4951 1092,-523.5 1150.046,-510.9749 1217.3981,-511.7577 1267.7865,-515.2437"/>
<text text-anchor="middle" x="1138.5" y="-527.3" font-family="Arial" font-size="14.00" fill="#96b0ff">related</text>
<polyline fill="none" stroke="#96b0ff" points="1161,-523.5 1116,-523.5 1136.5112,-516.4741 "/>
</g>
<!-- sni&#45;level&#45;5 -->
<g id="node11" class="node">
<title>sni&#45;level&#45;5</title>
<path fill="#92eb42" stroke="#92eb42" d="M1376.3333,-729C1376.3333,-729 1310.6667,-729 1310.6667,-729 1306.8333,-729 1303,-725.1667 1303,-721.3333 1303,-721.3333 1303,-713.6667 1303,-713.6667 1303,-709.8333 1306.8333,-706 1310.6667,-706 1310.6667,-706 1376.3333,-706 1376.3333,-706 1380.1667,-706 1384,-709.8333 1384,-713.6667 1384,-713.6667 1384,-721.3333 1384,-721.3333 1384,-725.1667 1380.1667,-729 1376.3333,-729"/>
<text text-anchor="middle" x="1343.5" y="-713.8" font-family="Arial" font-size="14.00" fill="#00005a">sni&#45;level&#45;5</text>
</g>
<!-- sni&#45;level&#45;4 -->
<g id="node12" class="node">
<title>sni&#45;level&#45;4</title>
<path fill="#92eb42" stroke="#92eb42" d="M1029.8333,-729C1029.8333,-729 964.1667,-729 964.1667,-729 960.3333,-729 956.5,-725.1667 956.5,-721.3333 956.5,-721.3333 956.5,-713.6667 956.5,-713.6667 956.5,-709.8333 960.3333,-706 964.1667,-706 964.1667,-706 1029.8333,-706 1029.8333,-706 1033.6667,-706 1037.5,-709.8333 1037.5,-713.6667 1037.5,-713.6667 1037.5,-721.3333 1037.5,-721.3333 1037.5,-725.1667 1033.6667,-729 1029.8333,-729"/>
<text text-anchor="middle" x="997" y="-713.8" font-family="Arial" font-size="14.00" fill="#00005a">sni&#45;level&#45;4</text>
</g>
<!-- sni&#45;level&#45;5&#45;&gt;sni&#45;level&#45;4 -->
<g id="edge7" class="edge">
<title>sni&#45;level&#45;5&#45;&gt;sni&#45;level&#45;4</title>
<path fill="none" stroke="#00005a" d="M1302.7331,-717.5C1239.2633,-717.5 1116.9514,-717.5 1047.8222,-717.5"/>
<polygon fill="#00005a" stroke="#00005a" points="1047.6117,-714.0001 1037.6116,-717.5 1047.6116,-721.0001 1047.6117,-714.0001"/>
<text text-anchor="middle" x="1138.5" y="-721.3" font-family="Arial" font-size="14.00" fill="#00005a">broader</text>
<polyline fill="none" stroke="#00005a" points="1164,-717.5 1113,-717.5 1138.3028,-717.5 "/>
</g>
<!-- sni&#45;level&#45;3 -->
<g id="node25" class="node">
<title>sni&#45;level&#45;3</title>
<path fill="#92eb42" stroke="#92eb42" d="M753.8333,-729C753.8333,-729 688.1667,-729 688.1667,-729 684.3333,-729 680.5,-725.1667 680.5,-721.3333 680.5,-721.3333 680.5,-713.6667 680.5,-713.6667 680.5,-709.8333 684.3333,-706 688.1667,-706 688.1667,-706 753.8333,-706 753.8333,-706 757.6667,-706 761.5,-709.8333 761.5,-713.6667 761.5,-713.6667 761.5,-721.3333 761.5,-721.3333 761.5,-725.1667 757.6667,-729 753.8333,-729"/>
<text text-anchor="middle" x="721" y="-713.8" font-family="Arial" font-size="14.00" fill="#00005a">sni&#45;level&#45;3</text>
</g>
<!-- sni&#45;level&#45;4&#45;&gt;sni&#45;level&#45;3 -->
<g id="edge31" class="edge">
<title>sni&#45;level&#45;4&#45;&gt;sni&#45;level&#45;3</title>
<path fill="none" stroke="#00005a" d="M956.2752,-717.5C907.3543,-717.5 825.2494,-717.5 772.1142,-717.5"/>
<polygon fill="#00005a" stroke="#00005a" points="771.8919,-714.0001 761.8918,-717.5 771.8918,-721.0001 771.8919,-714.0001"/>
<text text-anchor="middle" x="859" y="-721.3" font-family="Arial" font-size="14.00" fill="#00005a">broader</text>
<polyline fill="none" stroke="#00005a" points="884.5,-717.5 833.5,-717.5 858.7493,-717.5 "/>
</g>
<!-- ssyk&#45;level&#45;2 -->
<g id="node14" class="node">
<title>ssyk&#45;level&#45;2</title>
<path fill="#92eb42" stroke="#92eb42" d="M266.8333,-427C266.8333,-427 190.1667,-427 190.1667,-427 186.3333,-427 182.5,-423.1667 182.5,-419.3333 182.5,-419.3333 182.5,-411.6667 182.5,-411.6667 182.5,-407.8333 186.3333,-404 190.1667,-404 190.1667,-404 266.8333,-404 266.8333,-404 270.6667,-404 274.5,-407.8333 274.5,-411.6667 274.5,-411.6667 274.5,-419.3333 274.5,-419.3333 274.5,-423.1667 270.6667,-427 266.8333,-427"/>
<text text-anchor="middle" x="228.5" y="-411.8" font-family="Arial" font-size="14.00" fill="#00005a">ssyk&#45;level&#45;2</text>
</g>
<!-- ssyk&#45;level&#45;3&#45;&gt;ssyk&#45;level&#45;2 -->
<g id="edge8" class="edge">
<title>ssyk&#45;level&#45;3&#45;&gt;ssyk&#45;level&#45;2</title>
<path fill="none" stroke="#00005a" d="M393.8468,-415.5C361.7928,-415.5 318.8923,-415.5 284.8228,-415.5"/>
<polygon fill="#00005a" stroke="#00005a" points="284.5549,-412.0001 274.5548,-415.5 284.5548,-419.0001 284.5549,-412.0001"/>
<text text-anchor="middle" x="321.5" y="-419.3" font-family="Arial" font-size="14.00" fill="#00005a">broader</text>
<polyline fill="none" stroke="#00005a" points="347,-415.5 296,-415.5 321.4023,-415.5 "/>
</g>
<!-- ssyk&#45;level&#45;1 -->
<g id="node21" class="node">
<title>ssyk&#45;level&#45;1</title>
<path fill="#92eb42" stroke="#92eb42" d="M84.3333,-427C84.3333,-427 7.6667,-427 7.6667,-427 3.8333,-427 0,-423.1667 0,-419.3333 0,-419.3333 0,-411.6667 0,-411.6667 0,-407.8333 3.8333,-404 7.6667,-404 7.6667,-404 84.3333,-404 84.3333,-404 88.1667,-404 92,-407.8333 92,-411.6667 92,-411.6667 92,-419.3333 92,-419.3333 92,-423.1667 88.1667,-427 84.3333,-427"/>
<text text-anchor="middle" x="46" y="-411.8" font-family="Arial" font-size="14.00" fill="#00005a">ssyk&#45;level&#45;1</text>
</g>
<!-- ssyk&#45;level&#45;2&#45;&gt;ssyk&#45;level&#45;1 -->
<g id="edge18" class="edge">
<title>ssyk&#45;level&#45;2&#45;&gt;ssyk&#45;level&#45;1</title>
<path fill="none" stroke="#00005a" d="M182.4475,-415.5C158.024,-415.5 127.821,-415.5 102.0447,-415.5"/>
<polygon fill="#00005a" stroke="#00005a" points="102.0378,-412.0001 92.0377,-415.5 102.0377,-419.0001 102.0378,-412.0001"/>
<text text-anchor="middle" x="135.5" y="-419.3" font-family="Arial" font-size="14.00" fill="#00005a">broader</text>
<polyline fill="none" stroke="#00005a" points="161,-415.5 110,-415.5 135.616,-415.5 "/>
</g>
<!-- sni&#45;level&#45;2 -->
<g id="node15" class="node">
<title>sni&#45;level&#45;2</title>
<path fill="#92eb42" stroke="#92eb42" d="M472.8333,-729C472.8333,-729 407.1667,-729 407.1667,-729 403.3333,-729 399.5,-725.1667 399.5,-721.3333 399.5,-721.3333 399.5,-713.6667 399.5,-713.6667 399.5,-709.8333 403.3333,-706 407.1667,-706 407.1667,-706 472.8333,-706 472.8333,-706 476.6667,-706 480.5,-709.8333 480.5,-713.6667 480.5,-713.6667 480.5,-721.3333 480.5,-721.3333 480.5,-725.1667 476.6667,-729 472.8333,-729"/>
<text text-anchor="middle" x="440" y="-713.8" font-family="Arial" font-size="14.00" fill="#00005a">sni&#45;level&#45;2</text>
</g>
<!-- sni&#45;level&#45;1 -->
<g id="node16" class="node">
<title>sni&#45;level&#45;1</title>
<path fill="#92eb42" stroke="#92eb42" d="M261.3333,-729C261.3333,-729 195.6667,-729 195.6667,-729 191.8333,-729 188,-725.1667 188,-721.3333 188,-721.3333 188,-713.6667 188,-713.6667 188,-709.8333 191.8333,-706 195.6667,-706 195.6667,-706 261.3333,-706 261.3333,-706 265.1667,-706 269,-709.8333 269,-713.6667 269,-713.6667 269,-721.3333 269,-721.3333 269,-725.1667 265.1667,-729 261.3333,-729"/>
<text text-anchor="middle" x="228.5" y="-713.8" font-family="Arial" font-size="14.00" fill="#00005a">sni&#45;level&#45;1</text>
</g>
<!-- sni&#45;level&#45;2&#45;&gt;sni&#45;level&#45;1 -->
<g id="edge9" class="edge">
<title>sni&#45;level&#45;2&#45;&gt;sni&#45;level&#45;1</title>
<path fill="none" stroke="#00005a" d="M399.2207,-717.5C364.9873,-717.5 315.9232,-717.5 279.1711,-717.5"/>
<polygon fill="#00005a" stroke="#00005a" points="279.1542,-714.0001 269.1541,-717.5 279.1541,-721.0001 279.1542,-714.0001"/>
<text text-anchor="middle" x="321.5" y="-721.3" font-family="Arial" font-size="14.00" fill="#00005a">broader</text>
<polyline fill="none" stroke="#00005a" points="347,-717.5 296,-717.5 321.3188,-717.5 "/>
</g>
<!-- keyword -->
<g id="node18" class="node">
<title>keyword</title>
<path fill="#92eb42" stroke="#92eb42" d="M1370.3333,-473C1370.3333,-473 1316.6667,-473 1316.6667,-473 1312.8333,-473 1309,-469.1667 1309,-465.3333 1309,-465.3333 1309,-457.6667 1309,-457.6667 1309,-453.8333 1312.8333,-450 1316.6667,-450 1316.6667,-450 1370.3333,-450 1370.3333,-450 1374.1667,-450 1378,-453.8333 1378,-457.6667 1378,-457.6667 1378,-465.3333 1378,-465.3333 1378,-469.1667 1374.1667,-473 1370.3333,-473"/>
<text text-anchor="middle" x="1343.5" y="-457.8" font-family="Arial" font-size="14.00" fill="#00005a">keyword</text>
</g>
<!-- keyword&#45;&gt;skill -->
<g id="edge12" class="edge">
<title>keyword&#45;&gt;skill</title>
<path fill="none" stroke="#96b0ff" d="M1308.6976,-449.9444C1257.8361,-433.7259 1159.8998,-405.0176 1074,-394.5 1006.0629,-386.1817 975.1052,-353.9037 920,-394.5 898.2696,-410.5089 923.2278,-435.8304 902,-452.5 869.7198,-477.8487 565.2312,-494.911 533,-469.5 506.0802,-448.2765 531.9505,-424.2959 515,-394.5 500.3549,-368.7565 473.9536,-346.2007 456.7042,-333.21"/>
<text text-anchor="middle" x="859" y="-476.3" font-family="Arial" font-size="14.00" fill="#96b0ff">related</text>
<polyline fill="none" stroke="#96b0ff" points="881.5,-472.5 836.5,-472.5 856.6792,-466.0277 "/>
</g>
<!-- keyword&#45;&gt;occupation&#45;name -->
<g id="edge36" class="edge">
<title>keyword&#45;&gt;occupation&#45;name</title>
<path fill="none" stroke="#96b0ff" d="M1308.8148,-457.4941C1257.3765,-453.3286 1159.6751,-452.3881 1092,-494.5 1079.755,-502.1197 1084.495,-511.6078 1074,-521.5 1059.1271,-535.5186 1039.12,-547.0446 1023.2275,-554.9214"/>
<text text-anchor="middle" x="1138.5" y="-498.3" font-family="Arial" font-size="14.00" fill="#96b0ff">related</text>
<polyline fill="none" stroke="#96b0ff" points="1161,-494.5 1116,-494.5 1091.9955,-494.5028 "/>
</g>
<!-- sun&#45;education&#45;level&#45;2 -->
<g id="node22" class="node">
<title>sun&#45;education&#45;level&#45;2</title>
<path fill="#92eb42" stroke="#92eb42" d="M1066.3333,-179C1066.3333,-179 927.6667,-179 927.6667,-179 923.8333,-179 920,-175.1667 920,-171.3333 920,-171.3333 920,-163.6667 920,-163.6667 920,-159.8333 923.8333,-156 927.6667,-156 927.6667,-156 1066.3333,-156 1066.3333,-156 1070.1667,-156 1074,-159.8333 1074,-163.6667 1074,-163.6667 1074,-171.3333 1074,-171.3333 1074,-175.1667 1070.1667,-179 1066.3333,-179"/>
<text text-anchor="middle" x="997" y="-163.8" font-family="Arial" font-size="14.00" fill="#00005a">sun&#45;education&#45;level&#45;2</text>
</g>
<!-- sun&#45;education&#45;level&#45;1 -->
<g id="node23" class="node">
<title>sun&#45;education&#45;level&#45;1</title>
<path fill="#92eb42" stroke="#92eb42" d="M790.3333,-179C790.3333,-179 651.6667,-179 651.6667,-179 647.8333,-179 644,-175.1667 644,-171.3333 644,-171.3333 644,-163.6667 644,-163.6667 644,-159.8333 647.8333,-156 651.6667,-156 651.6667,-156 790.3333,-156 790.3333,-156 794.1667,-156 798,-159.8333 798,-163.6667 798,-163.6667 798,-171.3333 798,-171.3333 798,-175.1667 794.1667,-179 790.3333,-179"/>
<text text-anchor="middle" x="721" y="-163.8" font-family="Arial" font-size="14.00" fill="#00005a">sun&#45;education&#45;level&#45;1</text>
</g>
<!-- sun&#45;education&#45;level&#45;2&#45;&gt;sun&#45;education&#45;level&#45;1 -->
<g id="edge19" class="edge">
<title>sun&#45;education&#45;level&#45;2&#45;&gt;sun&#45;education&#45;level&#45;1</title>
<path fill="none" stroke="#00005a" d="M919.7516,-167.5C885.2069,-167.5 844.3166,-167.5 808.6335,-167.5"/>
<polygon fill="#00005a" stroke="#00005a" points="808.2298,-164.0001 798.2297,-167.5 808.2297,-171.0001 808.2298,-164.0001"/>
<text text-anchor="middle" x="859" y="-171.3" font-family="Arial" font-size="14.00" fill="#00005a">broader</text>
<polyline fill="none" stroke="#00005a" points="884.5,-167.5 833.5,-167.5 858.8272,-167.5 "/>
</g>
<!-- sun&#45;education&#45;field&#45;3 -->
<g id="node32" class="node">
<title>sun&#45;education&#45;field&#45;3</title>
<path fill="#92eb42" stroke="#92eb42" d="M1064.3333,-250C1064.3333,-250 929.6667,-250 929.6667,-250 925.8333,-250 922,-246.1667 922,-242.3333 922,-242.3333 922,-234.6667 922,-234.6667 922,-230.8333 925.8333,-227 929.6667,-227 929.6667,-227 1064.3333,-227 1064.3333,-227 1068.1667,-227 1072,-230.8333 1072,-234.6667 1072,-234.6667 1072,-242.3333 1072,-242.3333 1072,-246.1667 1068.1667,-250 1064.3333,-250"/>
<text text-anchor="middle" x="997" y="-234.8" font-family="Arial" font-size="14.00" fill="#00005a">sun&#45;education&#45;field&#45;3</text>
</g>
<!-- sun&#45;education&#45;level&#45;2&#45;&gt;sun&#45;education&#45;field&#45;3 -->
<g id="edge29" class="edge">
<title>sun&#45;education&#45;level&#45;2&#45;&gt;sun&#45;education&#45;field&#45;3</title>
<path fill="none" stroke="#96b0ff" d="M997,-179.2242C997,-192.4581 997,-213.8505 997,-226.994"/>
<text text-anchor="middle" x="1015" y="-206.8" font-family="Arial" font-size="14.00" fill="#96b0ff">possible_combinations</text>
<text text-anchor="middle" x="1015" y="-191.8" font-family="Arial" font-size="14.00" fill="#96b0ff">unlikely_combinations</text>
<polyline fill="none" stroke="#96b0ff" points="1089.5,-188 940.5,-188 997,-202.7378 "/>
</g>
<!-- sun&#45;education&#45;field&#45;4 -->
<g id="node24" class="node">
<title>sun&#45;education&#45;field&#45;4</title>
<path fill="#92eb42" stroke="#92eb42" d="M1410.8333,-250C1410.8333,-250 1276.1667,-250 1276.1667,-250 1272.3333,-250 1268.5,-246.1667 1268.5,-242.3333 1268.5,-242.3333 1268.5,-234.6667 1268.5,-234.6667 1268.5,-230.8333 1272.3333,-227 1276.1667,-227 1276.1667,-227 1410.8333,-227 1410.8333,-227 1414.6667,-227 1418.5,-230.8333 1418.5,-234.6667 1418.5,-234.6667 1418.5,-242.3333 1418.5,-242.3333 1418.5,-246.1667 1414.6667,-250 1410.8333,-250"/>
<text text-anchor="middle" x="1343.5" y="-234.8" font-family="Arial" font-size="14.00" fill="#00005a">sun&#45;education&#45;field&#45;4</text>
</g>
<!-- sun&#45;education&#45;field&#45;4&#45;&gt;keyword -->
<g id="edge20" class="edge">
<title>sun&#45;education&#45;field&#45;4&#45;&gt;keyword</title>
<path fill="none" stroke="#96b0ff" d="M1389.2884,-250.0343C1451.4201,-268.118 1551.0141,-307.1603 1517,-365 1487.1229,-415.805 1419.7471,-441.7943 1378.2992,-453.4518"/>
<text text-anchor="middle" x="1524.5" y="-353.8" font-family="Arial" font-size="14.00" fill="#96b0ff">related</text>
<polyline fill="none" stroke="#96b0ff" points="1547,-350 1502,-350 1516.9891,-365.0186 "/>
</g>
<!-- sun&#45;education&#45;field&#45;4&#45;&gt;sun&#45;education&#45;field&#45;3 -->
<g id="edge33" class="edge">
<title>sun&#45;education&#45;field&#45;4&#45;&gt;sun&#45;education&#45;field&#45;3</title>
<path fill="none" stroke="#00005a" d="M1268.3147,-238.5C1213.4869,-238.5 1139.1217,-238.5 1082.1118,-238.5"/>
<polygon fill="#00005a" stroke="#00005a" points="1082.0386,-235.0001 1072.0386,-238.5 1082.0386,-242.0001 1082.0386,-235.0001"/>
<text text-anchor="middle" x="1138.5" y="-242.3" font-family="Arial" font-size="14.00" fill="#00005a">broader</text>
<polyline fill="none" stroke="#00005a" points="1164,-238.5 1113,-238.5 1138.7646,-238.5 "/>
</g>
<!-- sni&#45;level&#45;3&#45;&gt;sni&#45;level&#45;2 -->
<g id="edge21" class="edge">
<title>sni&#45;level&#45;3&#45;&gt;sni&#45;level&#45;2</title>
<path fill="none" stroke="#00005a" d="M680.4403,-717.5C630.3228,-717.5 545.0292,-717.5 490.6571,-717.5"/>
<polygon fill="#00005a" stroke="#00005a" points="490.5475,-714.0001 480.5474,-717.5 490.5474,-721.0001 490.5475,-714.0001"/>
<text text-anchor="middle" x="579.5" y="-721.3" font-family="Arial" font-size="14.00" fill="#00005a">broader</text>
<polyline fill="none" stroke="#00005a" points="605,-717.5 554,-717.5 579.4828,-717.5 "/>
</g>
<!-- region -->
<g id="node26" class="node">
<title>region</title>
<path fill="#92eb42" stroke="#92eb42" d="M1016.8333,-770C1016.8333,-770 977.1667,-770 977.1667,-770 973.3333,-770 969.5,-766.1667 969.5,-762.3333 969.5,-762.3333 969.5,-754.6667 969.5,-754.6667 969.5,-750.8333 973.3333,-747 977.1667,-747 977.1667,-747 1016.8333,-747 1016.8333,-747 1020.6667,-747 1024.5,-750.8333 1024.5,-754.6667 1024.5,-754.6667 1024.5,-762.3333 1024.5,-762.3333 1024.5,-766.1667 1020.6667,-770 1016.8333,-770"/>
<text text-anchor="middle" x="997" y="-754.8" font-family="Arial" font-size="14.00" fill="#00005a">region</text>
</g>
<!-- country -->
<g id="node27" class="node">
<title>country</title>
<path fill="#92eb42" stroke="#92eb42" d="M744.8333,-770C744.8333,-770 697.1667,-770 697.1667,-770 693.3333,-770 689.5,-766.1667 689.5,-762.3333 689.5,-762.3333 689.5,-754.6667 689.5,-754.6667 689.5,-750.8333 693.3333,-747 697.1667,-747 697.1667,-747 744.8333,-747 744.8333,-747 748.6667,-747 752.5,-750.8333 752.5,-754.6667 752.5,-754.6667 752.5,-762.3333 752.5,-762.3333 752.5,-766.1667 748.6667,-770 744.8333,-770"/>
<text text-anchor="middle" x="721" y="-754.8" font-family="Arial" font-size="14.00" fill="#00005a">country</text>
</g>
<!-- region&#45;&gt;country -->
<g id="edge22" class="edge">
<title>region&#45;&gt;country</title>
<path fill="none" stroke="#00005a" d="M969.2724,-758.5C920.7566,-758.5 820.2057,-758.5 763.0715,-758.5"/>
<polygon fill="#00005a" stroke="#00005a" points="762.9309,-755.0001 752.9309,-758.5 762.9308,-762.0001 762.9309,-755.0001"/>
<text text-anchor="middle" x="859" y="-762.3" font-family="Arial" font-size="14.00" fill="#00005a">broader</text>
<polyline fill="none" stroke="#00005a" points="884.5,-758.5 833.5,-758.5 859.0515,-758.5 "/>
</g>
<!-- continent -->
<g id="node35" class="node">
<title>continent</title>
<path fill="#92eb42" stroke="#92eb42" d="M469.3333,-770C469.3333,-770 410.6667,-770 410.6667,-770 406.8333,-770 403,-766.1667 403,-762.3333 403,-762.3333 403,-754.6667 403,-754.6667 403,-750.8333 406.8333,-747 410.6667,-747 410.6667,-747 469.3333,-747 469.3333,-747 473.1667,-747 477,-750.8333 477,-754.6667 477,-754.6667 477,-762.3333 477,-762.3333 477,-766.1667 473.1667,-770 469.3333,-770"/>
<text text-anchor="middle" x="440" y="-754.8" font-family="Arial" font-size="14.00" fill="#00005a">continent</text>
</g>
<!-- country&#45;&gt;continent -->
<g id="edge39" class="edge">
<title>country&#45;&gt;continent</title>
<path fill="none" stroke="#00005a" d="M689.312,-758.5C640.1274,-758.5 545.1034,-758.5 487.6304,-758.5"/>
<polygon fill="#00005a" stroke="#00005a" points="487.3555,-755.0001 477.3555,-758.5 487.3554,-762.0001 487.3555,-755.0001"/>
<text text-anchor="middle" x="579.5" y="-762.3" font-family="Arial" font-size="14.00" fill="#00005a">broader</text>
<polyline fill="none" stroke="#00005a" points="605,-758.5 554,-758.5 579.3862,-758.5 "/>
</g>
<!-- municipality -->
<g id="node28" class="node">
<title>municipality</title>
<path fill="#92eb42" stroke="#92eb42" d="M1380.8333,-770C1380.8333,-770 1306.1667,-770 1306.1667,-770 1302.3333,-770 1298.5,-766.1667 1298.5,-762.3333 1298.5,-762.3333 1298.5,-754.6667 1298.5,-754.6667 1298.5,-750.8333 1302.3333,-747 1306.1667,-747 1306.1667,-747 1380.8333,-747 1380.8333,-747 1384.6667,-747 1388.5,-750.8333 1388.5,-754.6667 1388.5,-754.6667 1388.5,-762.3333 1388.5,-762.3333 1388.5,-766.1667 1384.6667,-770 1380.8333,-770"/>
<text text-anchor="middle" x="1343.5" y="-754.8" font-family="Arial" font-size="14.00" fill="#00005a">municipality</text>
</g>
<!-- municipality&#45;&gt;region -->
<g id="edge23" class="edge">
<title>municipality&#45;&gt;region</title>
<path fill="none" stroke="#00005a" d="M1298.2012,-758.5C1229.2147,-758.5 1099.074,-758.5 1034.8323,-758.5"/>
<polygon fill="#00005a" stroke="#00005a" points="1034.738,-755.0001 1024.7379,-758.5 1034.7379,-762.0001 1034.738,-755.0001"/>
<text text-anchor="middle" x="1138.5" y="-762.3" font-family="Arial" font-size="14.00" fill="#00005a">broader</text>
<polyline fill="none" stroke="#00005a" points="1164,-758.5 1113,-758.5 1138.3713,-758.5 "/>
</g>
<!-- self&#45;employment&#45;type -->
<g id="node29" class="node">
<title>self&#45;employment&#45;type</title>
<path fill="#92eb42" stroke="#92eb42" d="M1412.3333,-138C1412.3333,-138 1274.6667,-138 1274.6667,-138 1270.8333,-138 1267,-134.1667 1267,-130.3333 1267,-130.3333 1267,-122.6667 1267,-122.6667 1267,-118.8333 1270.8333,-115 1274.6667,-115 1274.6667,-115 1412.3333,-115 1412.3333,-115 1416.1667,-115 1420,-118.8333 1420,-122.6667 1420,-122.6667 1420,-130.3333 1420,-130.3333 1420,-134.1667 1416.1667,-138 1412.3333,-138"/>
<text text-anchor="middle" x="1343.5" y="-122.8" font-family="Arial" font-size="14.00" fill="#00005a">self&#45;employment&#45;type</text>
</g>
<!-- employment&#45;variety -->
<g id="node30" class="node">
<title>employment&#45;variety</title>
<path fill="#92eb42" stroke="#92eb42" d="M1059.8333,-119C1059.8333,-119 934.1667,-119 934.1667,-119 930.3333,-119 926.5,-115.1667 926.5,-111.3333 926.5,-111.3333 926.5,-103.6667 926.5,-103.6667 926.5,-99.8333 930.3333,-96 934.1667,-96 934.1667,-96 1059.8333,-96 1059.8333,-96 1063.6667,-96 1067.5,-99.8333 1067.5,-103.6667 1067.5,-103.6667 1067.5,-111.3333 1067.5,-111.3333 1067.5,-115.1667 1063.6667,-119 1059.8333,-119"/>
<text text-anchor="middle" x="997" y="-103.8" font-family="Arial" font-size="14.00" fill="#00005a">employment&#45;variety</text>
</g>
<!-- self&#45;employment&#45;type&#45;&gt;employment&#45;variety -->
<g id="edge25" class="edge">
<title>self&#45;employment&#45;type&#45;&gt;employment&#45;variety</title>
<path fill="none" stroke="#00005a" d="M1266.6004,-122.2833C1210.551,-119.2099 1134.7741,-115.0547 1077.8304,-111.9323"/>
<polygon fill="#00005a" stroke="#00005a" points="1077.9621,-108.4343 1067.7855,-111.3815 1077.5788,-115.4238 1077.9621,-108.4343"/>
<text text-anchor="middle" x="1138.5" y="-122.3" font-family="Arial" font-size="14.00" fill="#00005a">broader</text>
<polyline fill="none" stroke="#00005a" points="1164,-118.5 1113,-118.5 1139.3689,-115.3067 "/>
</g>
<!-- employment&#45;type -->
<g id="node31" class="node">
<title>employment&#45;type</title>
<path fill="#92eb42" stroke="#92eb42" d="M1398.8333,-97C1398.8333,-97 1288.1667,-97 1288.1667,-97 1284.3333,-97 1280.5,-93.1667 1280.5,-89.3333 1280.5,-89.3333 1280.5,-81.6667 1280.5,-81.6667 1280.5,-77.8333 1284.3333,-74 1288.1667,-74 1288.1667,-74 1398.8333,-74 1398.8333,-74 1402.6667,-74 1406.5,-77.8333 1406.5,-81.6667 1406.5,-81.6667 1406.5,-89.3333 1406.5,-89.3333 1406.5,-93.1667 1402.6667,-97 1398.8333,-97"/>
<text text-anchor="middle" x="1343.5" y="-81.8" font-family="Arial" font-size="14.00" fill="#00005a">employment&#45;type</text>
</g>
<!-- employment&#45;type&#45;&gt;keyword -->
<g id="edge30" class="edge">
<title>employment&#45;type&#45;&gt;keyword</title>
<path fill="none" stroke="#96b0ff" d="M1406.8508,-78.4865C1434.2173,-79.0777 1464.3919,-85.2177 1484,-105.5 1533.7653,-156.9762 1562.2701,-370.5293 1517,-426 1484.0498,-466.3749 1418.6724,-468.8474 1378.2535,-465.9087"/>
<text text-anchor="middle" x="1524.5" y="-414.8" font-family="Arial" font-size="14.00" fill="#96b0ff">related</text>
<polyline fill="none" stroke="#96b0ff" points="1547,-411 1502,-411 1516.9879,-426.0148 "/>
</g>
<!-- employment&#45;type&#45;&gt;employment&#45;variety -->
<g id="edge26" class="edge">
<title>employment&#45;type&#45;&gt;employment&#45;variety</title>
<path fill="none" stroke="#00005a" d="M1280.3452,-86.0091C1229.4172,-86.841 1155.9893,-88.9908 1092,-94.5 1087.3224,-94.9027 1082.5224,-95.3745 1077.6838,-95.8952"/>
<polygon fill="#00005a" stroke="#00005a" points="1077.2656,-92.4201 1067.7245,-97.0263 1078.0556,-99.3754 1077.2656,-92.4201"/>
<text text-anchor="middle" x="1138.5" y="-98.3" font-family="Arial" font-size="14.00" fill="#00005a">broader</text>
<polyline fill="none" stroke="#00005a" points="1164,-94.5 1113,-94.5 1137.7461,-91.1774 "/>
</g>
<!-- sun&#45;education&#45;field&#45;3&#45;&gt;sun&#45;education&#45;field&#45;2 -->
<g id="edge32" class="edge">
<title>sun&#45;education&#45;field&#45;3&#45;&gt;sun&#45;education&#45;field&#45;2</title>
<path fill="none" stroke="#00005a" d="M921.9464,-238.5C886.1986,-238.5 843.2789,-238.5 806.3002,-238.5"/>
<polygon fill="#00005a" stroke="#00005a" points="806.0387,-235.0001 796.0387,-238.5 806.0387,-242.0001 806.0387,-235.0001"/>
<text text-anchor="middle" x="859" y="-242.3" font-family="Arial" font-size="14.00" fill="#00005a">broader</text>
<polyline fill="none" stroke="#00005a" points="884.5,-238.5 833.5,-238.5 859.0076,-238.5 "/>
</g>
<!-- sun&#45;education&#45;level&#45;3 -->
<g id="node33" class="node">
<title>sun&#45;education&#45;level&#45;3</title>
<path fill="#92eb42" stroke="#92eb42" d="M1412.8333,-179C1412.8333,-179 1274.1667,-179 1274.1667,-179 1270.3333,-179 1266.5,-175.1667 1266.5,-171.3333 1266.5,-171.3333 1266.5,-163.6667 1266.5,-163.6667 1266.5,-159.8333 1270.3333,-156 1274.1667,-156 1274.1667,-156 1412.8333,-156 1412.8333,-156 1416.6667,-156 1420.5,-159.8333 1420.5,-163.6667 1420.5,-163.6667 1420.5,-171.3333 1420.5,-171.3333 1420.5,-175.1667 1416.6667,-179 1412.8333,-179"/>
<text text-anchor="middle" x="1343.5" y="-163.8" font-family="Arial" font-size="14.00" fill="#00005a">sun&#45;education&#45;level&#45;3</text>
</g>
<!-- sun&#45;education&#45;level&#45;3&#45;&gt;sun&#45;education&#45;level&#45;2 -->
<g id="edge35" class="edge">
<title>sun&#45;education&#45;level&#45;3&#45;&gt;sun&#45;education&#45;level&#45;2</title>
<path fill="none" stroke="#00005a" d="M1266.1699,-167.5C1212.2802,-167.5 1140.3103,-167.5 1084.3487,-167.5"/>
<polygon fill="#00005a" stroke="#00005a" points="1084.0938,-164.0001 1074.0937,-167.5 1084.0937,-171.0001 1084.0938,-164.0001"/>
<text text-anchor="middle" x="1138.5" y="-171.3" font-family="Arial" font-size="14.00" fill="#00005a">broader</text>
<polyline fill="none" stroke="#00005a" points="1164,-167.5 1113,-167.5 1138.2625,-167.5 "/>
</g>
<!-- esco&#45;skill -->
<g id="node34" class="node">
<title>esco&#45;skill</title>
<path fill="#92eb42" stroke="#92eb42" d="M750.8333,-291C750.8333,-291 691.1667,-291 691.1667,-291 687.3333,-291 683.5,-287.1667 683.5,-283.3333 683.5,-283.3333 683.5,-275.6667 683.5,-275.6667 683.5,-271.8333 687.3333,-268 691.1667,-268 691.1667,-268 750.8333,-268 750.8333,-268 754.6667,-268 758.5,-271.8333 758.5,-275.6667 758.5,-275.6667 758.5,-283.3333 758.5,-283.3333 758.5,-287.1667 754.6667,-291 750.8333,-291"/>
<text text-anchor="middle" x="721" y="-275.8" font-family="Arial" font-size="14.00" fill="#00005a">esco&#45;skill</text>
</g>
<!-- esco&#45;skill&#45;&gt;skill -->
<g id="edge38" class="edge">
<title>esco&#45;skill&#45;&gt;skill</title>
<path fill="none" stroke="#00005a" d="M683.4205,-275.2486C645.1213,-271.9488 584.2323,-269.5656 533,-280.5 510.4316,-285.3167 486.6506,-295.9123 468.786,-305.1253"/>
<polygon fill="#00005a" stroke="#00005a" points="466.7006,-302.2701 459.5151,-310.0559 469.9876,-308.4504 466.7006,-302.2701"/>
<text text-anchor="middle" x="579.5" y="-329.3" font-family="Arial" font-size="14.00" fill="#00005a">broad_match</text>
<text text-anchor="middle" x="579.5" y="-314.3" font-family="Arial" font-size="14.00" fill="#00005a">close_match</text>
<text text-anchor="middle" x="579.5" y="-299.3" font-family="Arial" font-size="14.00" fill="#00005a">exact_match</text>
<text text-anchor="middle" x="579.5" y="-284.3" font-family="Arial" font-size="14.00" fill="#00005a">narrow_match</text>
<polyline fill="none" stroke="#00005a" points="626,-280.5 533,-280.5 576.5333,-274.264 "/>
</g>
</g>
</svg>
